<svg xmlns="http://www.w3.org/2000/svg" viewBox="0 0 27.02 27.02"><defs><style>.cls-1{fill:none;}.cls-2{fill:#fff;}</style></defs><g id="Calque_2" data-name="Calque 2"><g id="Calque_1-2" data-name="Calque 1"><rect class="cls-1" width="27.02" height="27.02"/><g id="IXloVh.tif"><path class="cls-2" d="M3.05,23.59V22.42H4V21.26H5V20.08H21.82v1.17h1v1.17h1v1.17Z"/><path class="cls-2" d="M4.16,8.81c0-.23,0-.45,0-.68,0,0,0,0,0-.05l1.91-.91,4.13-1.95,2.88-1.36.22-.1a.15.15,0,0,1,.13,0l1.3.61,2.31,1.1,5.55,2.61a.08.08,0,0,1,0,.06c0,.22,0,.45,0,.67Z"/><path class="cls-2" d="M10.59,10.65h1.69l.26,9.09H10.36Z"/><path class="cls-2" d="M14.55,10.65h1.69l.25,9.09H14.31Z"/><path class="cls-2" d="M20.45,19.74H18.28l.23-9.09H20.2Z"/><path class="cls-2" d="M6.4,19.74l.23-9.09H8.18c.14,0,.14,0,.15.15l.09,3.43c0,.78,0,1.57.07,2.35,0,.95,0,1.89.08,2.84,0,.1,0,.2,0,.31Z"/><path class="cls-2" d="M20.91,9.15v1.17H6V9.16C10.94,9.13,15.92,9.16,20.91,9.15Z"/></g></g></g></svg>