<svg xmlns="http://www.w3.org/2000/svg" viewBox="0 0 27.02 27.02"><defs><style>.cls-1{fill:none;}.cls-2{fill:#fff;}</style></defs><g id="Calque_2" data-name="Calque 2"><g id="Calque_1-2" data-name="Calque 1"><rect class="cls-1" width="27.02" height="27.02"/><g id="Mr9pq2.tif"><path class="cls-2" d="M22.28,17.9A11.81,11.81,0,0,0,14,22v-.69c0-3.71,0-7.41,0-11.12a1.78,1.78,0,0,1,.34-1,10.81,10.81,0,0,1,7.4-4.28H22l.25,0Z"/><path class="cls-2" d="M13,21.92c-3.08-2.85-3.8-3.21-8.19-4.07V4.79c1.06.28,2.07.48,3,.81a10.4,10.4,0,0,1,5,3.79A1.06,1.06,0,0,1,13,10c0,3.93,0,7.87,0,11.8A1,1,0,0,1,13,21.92Z"/><path class="cls-2" d="M2.65,21.39V8.12l1-.32c0,.45.06.83.06,1.22l0,8.8c0,1,0,1,1,1.09a10.22,10.22,0,0,1,6.37,2.66l.16.18C6.43,20.55,5.51,20.93,2.65,21.39Z"/><path class="cls-2" d="M24.37,21.41a15.07,15.07,0,0,0-8.6.37,9.55,9.55,0,0,1,4.75-2.61,13.86,13.86,0,0,1,1.95-.25c.71-.06.83-.17.84-.9q0-4.74,0-9.48V7.82l1.05.29Z"/></g></g></g></svg>