<svg xmlns="http://www.w3.org/2000/svg" viewBox="0 0 27.02 27.02"><defs><style>.cls-1{fill:none;}.cls-2{fill:#fff;}</style></defs><g id="Calque_2" data-name="Calque 2"><g id="Calque_1-2" data-name="Calque 1"><rect class="cls-1" width="27.02" height="27.02"/><g id="cyPEfq.tif"><path class="cls-2" d="M3.21,18.17V16.8a.61.61,0,0,0,0-.11c.1-.61.16-1.23.31-1.82A9.37,9.37,0,0,1,6.84,9.65a13.71,13.71,0,0,1,4.68-2.33,30.45,30.45,0,0,1,5.52-1c.8-.09,1.61-.18,2.41-.33a6.43,6.43,0,0,0,4.32-2.88l0,0v.06a39,39,0,0,1-.76,4,35.51,35.51,0,0,1-2.5,7.06,21.9,21.9,0,0,1-3.25,5,13.55,13.55,0,0,1-8.19,4.71,4.78,4.78,0,0,1-.84.08,4.17,4.17,0,0,1-.85-.13,2.92,2.92,0,0,1-1.72-1,.45.45,0,0,1-.07-.25,18.8,18.8,0,0,1,.49-3.49,8.75,8.75,0,0,1,2.16-4.15,13.55,13.55,0,0,1,3.3-2.58,22.22,22.22,0,0,1,2.61-1.11,20.42,20.42,0,0,0,3.15-1.37,32.39,32.39,0,0,0,2.74-1.73l0,0h-.05l-.09,0-1.31.65a20.58,20.58,0,0,1-4,1.43A15.51,15.51,0,0,0,10,12.11a11.49,11.49,0,0,0-4.36,4.78,12,12,0,0,0-.89,2.75c-.07.28-.12.57-.19.87l-.1-.05a2.49,2.49,0,0,1-1.17-1.79C3.27,18.5,3.24,18.33,3.21,18.17Z"/></g></g></g></svg>