<svg xmlns="http://www.w3.org/2000/svg" viewBox="0 0 27.02 27.02"><defs><style>.cls-1{fill:none;}.cls-2{fill:#fff;}</style></defs><g id="Calque_2" data-name="Calque 2"><g id="Calque_1-2" data-name="Calque 1"><rect class="cls-1" width="27.02" height="27.02"/><path class="cls-2" d="M20.14,3.79l-.81,3.83a4.64,4.64,0,0,0-3.42-1.18,4.59,4.59,0,0,0-3.65,1.62,5.42,5.42,0,0,0-1.12,2.28h7.6l-.44,2.14H10.87c0,.21,0,.48,0,.81s0,.66,0,1h7l-.44,2.14h-6.3a5.44,5.44,0,0,0,1.07,2.32,4.47,4.47,0,0,0,3.58,1.63,5.63,5.63,0,0,0,4.23-1.63V23a9.24,9.24,0,0,1-4.19.9,8.69,8.69,0,0,1-6.62-2.76,9.28,9.28,0,0,1-2.33-4.68h-2L5.3,14.3H6.66c0-.22,0-.46,0-.71q0-.63,0-1.11H4.86l.44-2.14H7a9.38,9.38,0,0,1,2.3-4.6A9,9,0,0,1,16.11,3,9,9,0,0,1,20.14,3.79Z"/></g></g></svg>