<svg xmlns="http://www.w3.org/2000/svg" viewBox="0 0 27.02 27.02"><defs><style>.cls-1{fill:none;}.cls-2{fill:#fff;}</style></defs><g id="Calque_2" data-name="Calque 2"><g id="Calque_1-2" data-name="Calque 1"><rect class="cls-1" width="27.02" height="27.02"/><g id="jHKwob.tif"><path class="cls-2" d="M19.34,2.89,19.7,3a2.07,2.07,0,0,1,1,.55c.87.86,1.74,1.72,2.59,2.59a2.17,2.17,0,0,1,0,3c-.37.4-.78.77-1.16,1.15l-5.6-5.6.06-.07,1-1a2.14,2.14,0,0,1,1.42-.67l.06,0Z"/><path class="cls-2" d="M17.59,7.06,19.74,9.2l-.06.07L9.5,19.44a1.52,1.52,0,1,1-2.17-2.12c.53-.55,1.08-1.08,1.62-1.62l8.56-8.57Z"/><path class="cls-2" d="M15.85,5.32,17,6.47l-.11.12Q11.81,11.68,6.72,16.77a.83.83,0,0,1-1.4-.3.79.79,0,0,1,.17-.79l.11-.11L15.71,5.46A.93.93,0,0,0,15.85,5.32Z"/><path class="cls-2" d="M20.3,9.77l1.14,1.15-.08.09L11.13,21.24a.79.79,0,0,1-.82.22.81.81,0,0,1-.4-1.3L10,20,20.16,9.9Z"/><path class="cls-2" d="M9.91,22.36,3,24l1.4-6.77a1.35,1.35,0,0,0,.67.72,2.08,2.08,0,0,0,1,.2c0,.15,0,.29,0,.43A2.43,2.43,0,0,0,6.4,20a2.2,2.2,0,0,0,1.42.87c.28.06.58.07.87.11h.1A1.35,1.35,0,0,0,9.91,22.36Z"/></g></g></g></svg>