<svg xmlns="http://www.w3.org/2000/svg" viewBox="0 0 27.02 27.02"><defs><style>.cls-1{fill:none;}.cls-2{fill:#fff;}</style></defs><g id="Calque_2" data-name="Calque 2"><g id="Calque_1-2" data-name="Calque 1"><rect class="cls-1" width="27.02" height="27.02"/><g id="mHXKGg.tif"><path class="cls-2" d="M2.13,13.68a11.38,11.38,0,1,1,11.4,11.4A11.42,11.42,0,0,1,2.13,13.68Zm18.2,1.44a4.1,4.1,0,0,0-1.1-.19,2.55,2.55,0,0,1-2.12-.82A1.08,1.08,0,0,1,16.73,13c.1-.56.12-1.14.27-1.69.06-.25.32-.45.51-.65s.28-.13.39-.23a2.71,2.71,0,0,1,3.36-.14,2,2,0,0,0,1.58.38,4.33,4.33,0,0,0-.5-.49c-.42-.28-.86-.51-1.27-.8s-.46-.47-.73-.65-.59-.17-.73.31c-.05.17-.19.41-.31.43a1.07,1.07,0,0,1-.73-.15,3.07,3.07,0,0,1-.52-.75c.72-.33,1.88-.26,1.34-1.51a4.53,4.53,0,0,1-1.05-1c-.09-.12.1-.45.2-.83-.69-.28-1.52-.62-2.35-.94a.43.43,0,0,0-.37,0c-.56.49-1.1,1-1.64,1.52a1.15,1.15,0,0,1-.45-1.46c.14-.42.14-.42-.08-.4L13,4.9A1.67,1.67,0,0,0,11,5c-.12.17-.08.45-.11.67a2.1,2.1,0,0,0,.51-.06c.31-.13.57-.35.88-.45s.54,0,.55.08a5.45,5.45,0,0,1,.1,1.21c0,.08-.29.14-.45.2s-.07,0-.1,0A2.7,2.7,0,0,0,12,6.7c-.2.06-.39.15-.59.2-.6.17-1.2.35-1.8.48a1.13,1.13,0,0,0-1,1.28A1.69,1.69,0,0,1,8.49,9a2,2,0,0,0-.26-.58,1.66,1.66,0,0,0-.65-.54,1.47,1.47,0,0,0-1.41.81c-.21.5-.06.73.49.78a1.39,1.39,0,0,1,.31.1c0,.09,0,.16-.06.19a.51.51,0,0,0-.17.73c.12.23,0,.59.13.82.22.42.67.42,1.06.11a.49.49,0,0,1,.42-.1c.71.37,1.41.76,2.09,1.18a1.4,1.4,0,0,1,.57.56,2.59,2.59,0,0,0,1.52,1.5c.73.25.76.76.24,1.35a2,2,0,0,0-.33.53c-.26.66-.56,1.26-1.34,1.44a.43.43,0,0,0-.24.15A10,10,0,0,1,9,20a1.64,1.64,0,0,0,.53,2.6,9.62,9.62,0,0,0,7.78.08c.92-.37,1.78-.79,2-1.9.06-.37.29-.75.23-1.09A1.66,1.66,0,0,1,20,18.26c.15-.19.4-.48.35-.63a4.37,4.37,0,0,1,.05-2.3C20.4,15.26,20.34,15.18,20.33,15.12Zm-15-6.59c-2.89,4.2-1.55,10.7,2.75,13.17a2.83,2.83,0,0,1-.43-.91,25.35,25.35,0,0,1-.11-3.14,2.43,2.43,0,0,0-.6-2.16,1.73,1.73,0,0,1-.62-1.65,9.19,9.19,0,0,1,.49-1.13,1.55,1.55,0,0,0,.15-.9,5.33,5.33,0,0,0-.64-1c-.13-.23-.18-.61-.38-.7C5.3,9.78,5.11,9.33,5.31,8.53Z"/><path class="cls-2" d="M17.63,7,18,6.36l.91,1c-.53.44-.55.42-.8,0C18,7.16,17.8,7.11,17.63,7Z"/><path class="cls-2" d="M15,5.36l.73-.09a1.77,1.77,0,0,1-.06.4,5.17,5.17,0,0,1-.68,0Z"/></g></g></g></svg>