<svg xmlns="http://www.w3.org/2000/svg" viewBox="0 0 27.02 27.02"><defs><style>.cls-1{fill:none;}.cls-2{fill:#fff;}</style></defs><g id="Calque_2" data-name="Calque 2"><g id="Calque_1-2" data-name="Calque 1"><rect class="cls-1" width="27.02" height="27.02"/><g id="x3Dr0C.tif"><path class="cls-2" d="M2.9,15.81c1,0,1,0,1.29-.84L6.52,8.76c.09-.24.18-.55.49-.46a.77.77,0,0,1,.44.46C8.25,10.82,9,12.89,9.79,15c.22.6.42,1.09,1.28.8a4,4,0,0,1-1.52,2.12,4.32,4.32,0,0,1-6.43-1.57l-.22-.41Zm1.83,0H9.26L7,9.78Z"/><path class="cls-2" d="M16,22.4h1.33c.89,0,1.11.22,1.1,1.12,0,.13,0,.27,0,.43H8.66v-.57c0-.73.24-1,1-1,.47,0,.94,0,1.43,0a2.52,2.52,0,0,1,1.5-2.17c.08,0,.14-.23.14-.35q0-4.52,0-9a1,1,0,0,0-.2-.44c-.19-.34-.39-.67-.64-1.11h3.28a4.35,4.35,0,0,1-.52,1,1,1,0,0,0-.3.78c0,2.89,0,5.77,0,8.66a.59.59,0,0,0,.35.62A2.44,2.44,0,0,1,16,22.4Z"/><path class="cls-2" d="M24.12,15.79a4.23,4.23,0,0,1-3.85,2.95,4.32,4.32,0,0,1-4.2-2.84s0-.06.06-.06c.69.13.95-.23,1.17-.85.73-2.08,1.54-4.15,2.34-6.21.07-.2.3-.34.46-.5.16.17.39.31.47.51.79,2.05,1.57,4.1,2.32,6.17C23.1,15.55,23.29,16.06,24.12,15.79Zm-4-6-2.28,6h4.55Z"/><path class="cls-2" d="M12.42,5.81,13,5.43c-.63-.83-.5-1.45.53-2.56,1,1,1.17,1.78.54,2.55l.57.39c1.33-1,2.67-.64,4,.05.41.21.77.46,1.29.2a.71.71,0,0,1,.91.47.8.8,0,0,1-.34,1,.81.81,0,0,1-1-.12,4.55,4.55,0,0,0-.84-.62,8.89,8.89,0,0,0-1.83-.71,3,3,0,0,0-1.32.16A.7.7,0,0,0,15,7a1.46,1.46,0,0,1-2.91,0,.73.73,0,0,0-.42-.66,2,2,0,0,0-1.78-.14c-.68.26-1.35.59-2,.91-.08,0-.14.15-.21.24a.8.8,0,0,1-1.07.25.83.83,0,0,1-.34-1,.78.78,0,0,1,1-.41A.79.79,0,0,0,8.14,6a5.6,5.6,0,0,1,2.53-.82A2.8,2.8,0,0,1,12.42,5.81Z"/></g></g></g></svg>