<svg xmlns="http://www.w3.org/2000/svg" viewBox="0 0 27.02 27.02"><defs><style>.cls-1{fill:none;}.cls-2{fill:#fff;}</style></defs><g id="Calque_2" data-name="Calque 2"><g id="Calque_1-2" data-name="Calque 1"><rect class="cls-1" width="27.02" height="27.02"/><g id="_90mSl6.tif" data-name="90mSl6.tif"><path class="cls-2" d="M13.48,5.42a2.34,2.34,0,0,1,1.26.66c.88.75,1.78,1.49,2.68,2.24l.2.17a2.27,2.27,0,0,0,0-.24V6c0-.44.14-.58.58-.58h2.27c.43,0,.57.14.57.59,0,1.69,0,3.37,0,5.06a.44.44,0,0,0,.18.39l2.61,2.16c.36.29.38.5.08.85l-.65.77a.47.47,0,0,1-.76.06l-8.88-7.4-.27-.23-1.26,1L4.21,15.33a.47.47,0,0,1-.79-.07l-.83-1V14a2.51,2.51,0,0,1,.26-.31L11.94,6.1a2.35,2.35,0,0,1,1.29-.68Z"/><path class="cls-2" d="M15.07,22.54V17.45H11.65v5.11h-5a.89.89,0,0,1-1-1q0-3,0-6.09a.45.45,0,0,1,.19-.39l7.3-6,.21-.17.18.14,7.38,6.09a.4.4,0,0,1,.14.29c0,2.08,0,4.15,0,6.22a.85.85,0,0,1-.88.93c-1.67,0-3.35,0-5,0Z"/></g></g></g></svg>