<svg xmlns="http://www.w3.org/2000/svg" viewBox="0 0 27.02 27.02"><defs><style>.cls-1{fill:none;}.cls-2{fill:#fff;}</style></defs><g id="Calque_2" data-name="Calque 2"><g id="Calque_1-2" data-name="Calque 1"><rect class="cls-1" width="27.02" height="27.02"/><g id="opb5TE.tif"><path class="cls-2" d="M24.92,8.82v.69a.43.43,0,0,0,0,.11c0,.21,0,.41-.09.62a9,9,0,0,1-1,2.67,20.61,20.61,0,0,1-2.54,3.66,41.42,41.42,0,0,1-3.45,3.56,52.72,52.72,0,0,1-4.23,3.53.13.13,0,0,1-.19,0,53.86,53.86,0,0,1-6-5.23,28.05,28.05,0,0,1-3.53-4.3,13,13,0,0,1-1.47-3,6.31,6.31,0,0,1-.26-3A5.79,5.79,0,0,1,4.06,4.69,5.77,5.77,0,0,1,9.32,3.27a5.79,5.79,0,0,1,4.14,3.24l.06.09,0-.09a6,6,0,0,1,8.58-2.39,5.87,5.87,0,0,1,2.69,4.05C24.87,8.39,24.89,8.61,24.92,8.82Z"/></g></g></g></svg>