<svg xmlns="http://www.w3.org/2000/svg" viewBox="0 0 27.02 27.02"><defs><style>.cls-1{fill:none;}.cls-2{fill:#fff;}</style></defs><g id="Calque_2" data-name="Calque 2"><g id="Calque_1-2" data-name="Calque 1"><rect class="cls-1" width="27.02" height="27.02"/><g id="yypXiP.tif"><path class="cls-2" d="M13.35,1.83h.11a12,12,0,0,0,7.47,3.59c.74.09,1.49.12,2.28.18,0,1.78.06,3.52,0,5.25a32.77,32.77,0,0,1-.45,4.55,12.08,12.08,0,0,1-5,8,20,20,0,0,1-4.25,2.16h-.11l-1.25-.51a12.64,12.64,0,0,1-7.7-8.25,20.15,20.15,0,0,1-.79-5.72c0-1.84,0-3.68,0-5.55.32,0,.57,0,.81,0A31,31,0,0,0,8,5,10.83,10.83,0,0,0,13.35,1.83ZM9.43,14l3.19,3.19,4.78-4.78L16,10.92l-3.42,3.43L10.8,12.54Z"/></g></g></g></svg>