<svg xmlns="http://www.w3.org/2000/svg" viewBox="0 0 27.02 27.02"><defs><style>.cls-1{fill:none;}.cls-2{fill:#fff;}</style></defs><g id="Calque_2" data-name="Calque 2"><g id="Calque_1-2" data-name="Calque 1"><rect class="cls-1" width="27.02" height="27.02"/><g id="LSRyk9.tif"><path class="cls-2" d="M7.76,9A4.67,4.67,0,0,0,10,9.76a.79.79,0,0,1-.11.19c-.28.43-.58.85-.86,1.27a1.94,1.94,0,0,0-.37,1.14.62.62,0,0,0,.54.63,2.39,2.39,0,0,0,1.51-.28,4.22,4.22,0,0,0,1.5-1.31.47.47,0,0,1,.33-.22l.08,0a1.06,1.06,0,0,1,1.07.09,37.3,37.3,0,0,1,5.52,3.59c.4.31.79.64,1.17,1a.69.69,0,0,1,.18.77.66.66,0,0,1-.64.51,1.15,1.15,0,0,1-.78-.18c-.92-.57-1.85-1.11-2.79-1.66a4.89,4.89,0,0,0-.51-.26c-.09,0-.19-.06-.26.06a.18.18,0,0,0,.09.27l2,1.25,1.21.73a.22.22,0,0,1,.12.19.79.79,0,0,1-.55.93,1,1,0,0,1-.8-.07l-1.08-.61L15,16.83a.21.21,0,0,0-.2,0,.28.28,0,0,0-.16.19c0,.06.07.15.13.19l1.8,1.07.81.5c.2.13.21.2.15.43a.81.81,0,0,1-1.12.56,11.91,11.91,0,0,1-1.23-.52l-1-.48a.85.85,0,0,0-.22-.09.21.21,0,0,0-.16.39l1.57.78.6.31a.74.74,0,0,1-.11.16,1.41,1.41,0,0,1-1.22.55,6.51,6.51,0,0,1-1.85-.4l-.1-.05c0-.08.07-.15.11-.22a1.3,1.3,0,0,0-.91-2l-.25,0a1.32,1.32,0,0,0-.32-1.06,1.29,1.29,0,0,0-1-.48c0-.11,0-.22,0-.33a1.28,1.28,0,0,0-1.54-1.21,1,1,0,0,0-.58.38l-.26.33-.14-.26a1.32,1.32,0,0,0-.93-.66A1.11,1.11,0,0,0,6,15l-.28.2a.75.75,0,0,0-.07-.12l-.74-.9c0-.06-.06-.1,0-.17L7.69,9.11Z"/><path class="cls-2" d="M9.19,12.19a.81.81,0,0,1,.15-.5L11,9.28A.9.9,0,0,1,11.59,9a11.18,11.18,0,0,1,2.24-.3A11.07,11.07,0,0,1,17.17,9a3.84,3.84,0,0,0,1.39.15L19.13,9c.1,0,.16,0,.22.1l2.7,4.77s0,.12,0,.14a5.94,5.94,0,0,1-1.37,1.18.17.17,0,0,1-.22,0,37.81,37.81,0,0,0-4.19-3c-.9-.55-1.84-1-2.76-1.54a.65.65,0,0,0-.56-.05,6.34,6.34,0,0,1-.74.23.48.48,0,0,0-.28.22,3.58,3.58,0,0,1-1.65,1.38,3,3,0,0,1-.74.15C9.26,12.59,9.19,12.5,9.19,12.19Z"/><path class="cls-2" d="M4,14.5l-.11,0-1.51-.91c-.12-.07-.14-.15-.06-.28,1.13-2,2.24-4,3.38-6,.27-.49.2-.41.63-.17s.85.54,1.27.8c.11.07.13.13.06.25l-3.4,6-.18.27A.27.27,0,0,1,4,14.5Z"/><path class="cls-2" d="M21.05,6.89a.6.6,0,0,1,.09.13c.28.46.57.92.84,1.4.87,1.54,1.73,3.09,2.6,4.64,0,.08.07.16.12.24a.16.16,0,0,1-.06.26l-1.5.89c-.12.08-.19.05-.26-.08L20.12,9.51c-.26-.46-.5-.93-.76-1.39a.15.15,0,0,1,.05-.24l1.55-1Z"/><path class="cls-2" d="M9.85,16.4a1.59,1.59,0,0,1-.16.32c-.45.63-.92,1.26-1.38,1.89a.64.64,0,0,1-.72.32A.91.91,0,0,1,7,18.31.58.58,0,0,1,7,17.76c.47-.63.94-1.27,1.4-1.91.18-.24.38-.44.72-.33a.91.91,0,0,1,.65.73v.07a.15.15,0,0,1,0,.07Z"/><path class="cls-2" d="M9.46,20.09a.88.88,0,0,1-.86-.77.68.68,0,0,1,.1-.4Q9.33,18,10,17.21a.37.37,0,0,1,.24-.12.78.78,0,0,1,.78.41.71.71,0,0,1,0,.84c-.36.5-.72,1-1.09,1.48A.51.51,0,0,1,9.46,20.09Z"/><path class="cls-2" d="M11.18,21.09a.89.89,0,0,1-.81-.86.67.67,0,0,1,.07-.24l.85-1.17a.49.49,0,0,1,.53-.16.9.9,0,0,1,.69.72.47.47,0,0,1-.06.37c-.27.4-.57.79-.87,1.18A.48.48,0,0,1,11.18,21.09Z"/><path class="cls-2" d="M7.46,16.17a1.49,1.49,0,0,1-.09.3c-.19.26-.38.51-.58.75a.48.48,0,0,1-.57.14.94.94,0,0,1-.62-.62.53.53,0,0,1,.06-.49c.17-.25.35-.5.54-.74a.53.53,0,0,1,.6-.18A.9.9,0,0,1,7.46,16.17Z"/></g></g></g></svg>